<svg height="512pt" preserveAspectRatio="xMidYMid meet" viewBox="0 0 512 512" width="512pt" xmlns="http://www.w3.org/2000/svg"><g transform="matrix(.1 0 0 -.1 0 512)"><path d="m2400 5110c-337-22-660-109-965-260-517-255-914-652-1166-1165-176-360-260-718-262-1115-1-362 55-650 192-993 80-199 124-242 195-186 38 30 34 70-18 181-86 183-147 387-188 624-29 171-32 518-5 695 44 293 144 594 277 831 336 596 888 1015 1546 1172 691 164 1428 12 1991-412l102-77-189-5c-182-5-189-6-214-29-34-32-35-79-3-109 22-21 30-22 342-22 316-1 320-1 337 21 16 19 18 51 18 336v314l-25 24c-26 27-51 31-88 14-42-19-47-47-47-254v-195l-93 73c-491 384-1120 578-1737 537z"/><path d="m1923 4319c-263-44-485-238-573-499-28-83-38-267-20-377 72-452 395-755 893-838 46-7 47-25 6-60-44-36-100-63-158-76-71-15-189 8-396 77-158 53-177 57-270 58-81 1-114-4-173-23-215-70-383-261-429-486-12-63-13-90-4-152 25-170 85-287 211-414 70-70 103-94 177-132 131-65 212-81 382-74 165 7 256 29 397 97 299 145 483 413 549 803 3 21 12 37 20 37 17 0 60-51 86-102 54-105 44-212-47-483-53-158-57-177-58-270-1-81 4-114 23-174 70-214 270-388 491-427 96-17 160-13 260 18 120 37 198 85 296 182 75 76 99 107 137 183 65 131 81 212 74 382-6 161-32 265-102 407-145 290-420 476-797 539-47 7-48 25-5 61 60 51 133 77 211 77 82-1 144-16 353-84 181-59 262-68 373-45 177 37 347 170 429 336 57 116 77 217 62 316-41 279-230 503-501 594-83 28-267 38-377 20-454-72-752-391-838-892-7-47-25-48-61-5-53 62-78 134-77 217 1 87 6 108 78 331 63 195 73 270 51 382-46 237-250 441-492 492-76 16-104 17-181 4zm172-164c208-54 375-278 351-469-4-28-29-119-56-202-68-209-83-275-82-379 0-99 19-169 67-245l27-42-34-29c-31-28-36-29-103-24-233 19-476 143-610 313-56 70-118 193-146 287-29 99-36 278-15 369 43 183 173 331 349 398 103 39 166 45 252 23zm1644-530c222-53 398-248 426-476 24-195-158-426-369-469-81-16-134-8-312 50-209 68-275 83-379 82-99 0-169-19-245-67l-42-27-29 34c-28 32-29 36-24 106 18 224 149 478 313 607 183 144 452 209 661 160zm-1111-945c94-57 94-183 0-240-117-71-259 71-188 188 26 42 76 72 120 72 19 0 50-9 68-20zm-1010-284c339-114 487-119 642-21l42 27 29-34c28-32 29-36 24-106-18-224-148-477-313-607-70-56-193-118-287-146-99-29-278-36-369-15-227 54-402 247-431 477-23 187 147 414 350 466 78 20 165 8 313-41zm1400-72c310-89 506-277 593-570 29-98 36-277 15-368-54-227-247-402-477-431-195-24-426 158-469 369-16 81-8 134 50 312 68 209 83 275 82 379 0 99-19 169-67 245l-27 42 34 29c32 28 36 29 106 24 40-3 112-17 160-31z"/><path d="m4720 3730c-34-34-31-64 21-174 88-189 161-437 195-661 25-165 25-505 1-665-90-591-372-1109-809-1485-353-303-758-489-1228-562-162-25-518-25-685 1-407 63-772 215-1092 454-57 43-103 80-103 85 0 4 87 7 194 7h195l20 26c28 35 26 67-3 101l-24 28-309 3c-302 3-310 2-336-18l-27-21v-324-324l26-20c35-28 67-26 101 3l28 24 3 205 3 206 78-63c235-190 568-363 866-450 249-72 448-100 725-100 229 0 361 14 560 59 643 144 1213 539 1576 1090 406 619 525 1375 328 2090-58 210-173 485-209 499-32 12-75 6-95-14z"/></g></svg>